<?xml version="1.0" encoding="UTF-8" standalone="no"?>
<!-- Created with Inkscape (http://www.inkscape.org/) -->

<svg
   xmlns:dc="http://purl.org/dc/elements/1.1/"
   xmlns:cc="http://creativecommons.org/ns#"
   xmlns:rdf="http://www.w3.org/1999/02/22-rdf-syntax-ns#"
   xmlns:svg="http://www.w3.org/2000/svg"
   xmlns="http://www.w3.org/2000/svg"
   xmlns:sodipodi="http://sodipodi.sourceforge.net/DTD/sodipodi-0.dtd"
   xmlns:inkscape="http://www.inkscape.org/namespaces/inkscape"
   width="251.54796"
   height="160.17845"
   id="svg2"
   version="1.1"
   inkscape:version="0.48.3.1 r9886"
   inkscape:export-filename="/home/jsanz/src/github/slides-9gvsig/imgs/osgeo-gvsig.png"
   inkscape:export-xdpi="286.23001"
   inkscape:export-ydpi="286.23001"
   sodipodi:docname="osgeo-gvsig.svg">
  <defs
     id="defs4">
    <clipPath
       id="clipPath17"
       clipPathUnits="userSpaceOnUse">
      <path
         inkscape:connector-curvature="0"
         id="path19"
         d="M 0,792 612,792 612,0 0,0 0,792 z" />
    </clipPath>
    <inkscape:perspective
       id="perspective9"
       inkscape:persp3d-origin="372.04724 : 350.78739 : 1"
       inkscape:vp_z="744.09448 : 526.18109 : 1"
       inkscape:vp_y="0 : 1000 : 0"
       inkscape:vp_x="0 : 526.18109 : 1"
       sodipodi:type="inkscape:persp3d" />
    <inkscape:perspective
       sodipodi:type="inkscape:persp3d"
       inkscape:vp_x="0 : 526.18109 : 1"
       inkscape:vp_y="0 : 1000 : 0"
       inkscape:vp_z="744.09448 : 526.18109 : 1"
       inkscape:persp3d-origin="372.04724 : 350.78739 : 1"
       id="perspective2390" />
    <inkscape:perspective
       id="perspective10"
       inkscape:persp3d-origin="372.04724 : 350.78739 : 1"
       inkscape:vp_z="744.09448 : 526.18109 : 1"
       inkscape:vp_y="0 : 1000 : 0"
       inkscape:vp_x="0 : 526.18109 : 1"
       sodipodi:type="inkscape:persp3d" />
  </defs>
  <sodipodi:namedview
     id="base"
     pagecolor="#16ff43"
     bordercolor="#666666"
     borderopacity="1.0"
     inkscape:pageopacity="0"
     inkscape:pageshadow="2"
     inkscape:zoom="1.979899"
     inkscape:cx="124.69121"
     inkscape:cy="147.12732"
     inkscape:document-units="px"
     inkscape:current-layer="layer1"
     showgrid="false"
     fit-margin-top="10"
     fit-margin-left="10"
     fit-margin-right="10"
     fit-margin-bottom="10"
     inkscape:window-width="1916"
     inkscape:window-height="1157"
     inkscape:window-x="0"
     inkscape:window-y="41"
     inkscape:window-maximized="0" />
  <metadata
     id="metadata7">
    <rdf:RDF>
      <cc:Work
         rdf:about="">
        <dc:format>image/svg+xml</dc:format>
        <dc:type
           rdf:resource="http://purl.org/dc/dcmitype/StillImage" />
        <dc:title></dc:title>
      </cc:Work>
    </rdf:RDF>
  </metadata>
  <g
     inkscape:groupmode="layer"
     id="layer2"
     inkscape:label="fondo-gvsig"
     transform="translate(1.3001205e-6,-3.1634812e-8)" />
  <g
     inkscape:label="Capa 1"
     inkscape:groupmode="layer"
     id="layer1"
     transform="translate(-333.31748,-4.3488803)"
     style="display:inline">
    <g
       id="g3730"
       transform="matrix(0.68135458,0,0,0.68135458,282.28608,17.65886)">
      <g
         transform="matrix(0.60698722,0,0,0.60698722,-47.64544,126.5271)"
         id="g3708">
        <g
           id="g21"
           transform="matrix(1.25,0,0,-1.25,239.33957,107.71106)">
          <path
             d="m 0,0 c -2.13,3.634 -3.21,8.231 -3.21,13.663 0,5.647 1.053,10.163 3.123,13.423 2.051,3.226 5.085,4.858 9.016,4.858 9.046,0 13.441,-5.978 13.441,-18.281 C 22.37,7.63 21.205,2.883 18.908,-0.442 16.634,-3.736 13.274,-5.404 8.929,-5.404 5.108,-5.404 2.106,-3.586 0,0 m -5.357,31.244 c -3.491,-4.698 -5.262,-10.612 -5.262,-17.581 0,-7.401 1.734,-13.557 5.163,-18.297 3.445,-4.77 8.283,-7.189 14.382,-7.189 6.678,0 11.882,2.289 15.47,6.801 3.572,4.496 5.386,10.782 5.386,18.685 0,7.715 -1.808,13.816 -5.374,18.147 -3.574,4.347 -8.783,6.55 -15.482,6.55 -5.967,0 -10.769,-2.395 -14.283,-7.116"
             style="fill:#46ae33;fill-opacity:1;fill-rule:nonzero;stroke:none"
             id="path23"
             inkscape:connector-curvature="0" />
        </g>
        <g
           id="g25"
           transform="matrix(1.25,0,0,-1.25,287.08495,64.27356)">
          <path
             d="m 0,0 c -2.586,-2.399 -3.895,-5.466 -3.895,-9.111 0,-2.982 0.668,-5.579 1.991,-7.709 1.318,-2.132 3.664,-3.995 6.976,-5.538 l 3.862,-1.807 c 3.408,-1.606 5.56,-3.1 6.392,-4.439 0.832,-1.338 1.252,-2.81 1.252,-4.372 0,-2.076 -0.75,-3.808 -2.236,-5.147 -1.488,-1.347 -3.494,-2.031 -5.971,-2.031 -1.402,0 -3.017,0.296 -4.805,0.889 -1.785,0.586 -3.293,1.328 -4.484,2.207 l -0.279,0.207 -2.592,-6.545 0.176,-0.117 c 3.045,-2.031 6.763,-3.06 11.056,-3.06 4.891,0 8.852,1.291 11.782,3.837 2.941,2.553 4.435,5.708 4.435,9.378 0,3.354 -0.68,6.159 -2.025,8.345 -1.346,2.188 -3.707,4.09 -7.02,5.657 l -3.935,1.868 c -2.508,1.212 -4.188,2.157 -4.985,2.819 -0.785,0.648 -1.408,1.465 -1.845,2.429 -0.444,0.969 -0.666,2.057 -0.666,3.239 0,1.906 0.621,3.49 1.843,4.701 1.225,1.214 2.94,1.826 5.094,1.826 1.496,0 3.15,-0.297 4.916,-0.875 1.762,-0.584 3.086,-1.191 3.943,-1.808 l 0.288,-0.215 2.113,6.218 -0.139,0.116 C 19.121,2.719 15.33,3.61 9.969,3.61 5.934,3.61 2.578,2.396 0,0"
             style="fill:#46ae33;fill-opacity:1;fill-rule:nonzero;stroke:none"
             id="path27"
             inkscape:connector-curvature="0" />
        </g>
        <g
           id="g29"
           transform="matrix(1.25,0,0,-1.25,330.35395,68.53381)">
          <path
             d="m 0,0 c -4.223,-4.647 -6.365,-10.792 -6.365,-18.251 0,-7.48 1.953,-13.564 5.806,-18.084 3.866,-4.53 9.202,-6.83 15.864,-6.83 2.951,0 6.039,0.466 9.17,1.374 3.142,0.911 5.63,2.14 7.396,3.644 l 0.096,0.076 0,21.3 -13.711,0 0,-6.083 6.633,0 0,-10.875 c -2.09,-1.997 -4.848,-3.017 -8.209,-3.017 -4.805,0 -8.647,1.677 -11.428,4.989 -2.791,3.322 -4.203,7.778 -4.203,13.24 0,5.748 1.439,10.428 4.285,13.905 2.832,3.463 6.752,5.216 11.658,5.216 3.086,0 6.287,-1.216 9.518,-3.609 l 0.254,-0.187 2.947,5.865 -0.156,0.135 C 26.377,5.601 22.217,7.021 17.182,7.021 10.01,7.021 4.229,4.655 0,0"
             style="fill:#46ae33;fill-opacity:1;fill-rule:nonzero;stroke:none"
             id="path31"
             inkscape:connector-curvature="0" />
        </g>
        <g
           id="g33"
           transform="matrix(1.25,0,0,-1.25,390.08057,86.587935)">
          <path
             d="m 0,0 c 1.814,1.733 4.098,2.612 6.783,2.612 2.875,0 5.178,-0.894 6.84,-2.663 1.455,-1.559 2.18,-3.539 2.236,-5.841 l -18.742,0 C -2.598,-3.573 -1.662,-1.575 0,0 m -4.854,3.604 c -3.55,-3.531 -5.351,-8.276 -5.351,-14.106 0,-5.62 1.756,-10.154 5.219,-13.49 3.115,-3.027 6.951,-4.561 11.41,-4.561 3.074,0 5.898,0.472 8.408,1.406 2.006,0.71 3.527,1.574 4.512,2.569 l 0.142,0.143 -2.884,4.932 -0.239,-0.215 c -2.316,-2.045 -5.25,-3.083 -8.724,-3.083 -3.039,0 -5.549,0.947 -7.475,2.809 -2.133,2.095 -3.221,5.134 -3.269,9.011 l 25.205,0 0.052,0.195 c 0.332,1.178 0.5,2.48 0.5,3.873 0,4.531 -1.412,8.225 -4.205,10.973 C 15.57,6.916 11.551,8.366 6.502,8.366 2.146,8.366 -1.67,6.763 -4.854,3.604"
             style="fill:#46ae33;fill-opacity:1;fill-rule:nonzero;stroke:none"
             id="path35"
             inkscape:connector-curvature="0" />
        </g>
        <g
           id="g37"
           transform="matrix(1.25,0,0,-1.25,432.70744,99.102685)">
          <path
             d="m 0,0 c 0,3.992 0.838,7.162 2.488,9.422 1.633,2.233 3.848,3.365 6.588,3.365 6.084,0 9.043,-4.181 9.043,-12.787 0,-4.015 -0.814,-7.22 -2.428,-9.526 -1.587,-2.276 -3.812,-3.426 -6.615,-3.426 C 2.969,-12.952 0,-8.717 0,0 M -2.641,13.292 C -5.586,9.927 -7.08,5.458 -7.08,0 c 0,-5.627 1.432,-10.174 4.258,-13.504 2.834,-3.343 6.836,-5.037 11.898,-5.037 4.951,0 8.918,1.677 11.799,4.985 2.869,3.303 4.322,7.861 4.322,13.556 0,5.714 -1.42,10.253 -4.224,13.487 -2.815,3.244 -6.815,4.891 -11.897,4.891 -4.818,0 -8.763,-1.711 -11.717,-5.086"
             style="fill:#46ae33;fill-opacity:1;fill-rule:nonzero;stroke:none"
             id="path39"
             inkscape:connector-curvature="0" />
        </g>
      </g>
      <g
         id="g3720">
        <g
           id="g125"
           transform="matrix(1.25,0,0,-1.25,166.49782,78.963435)">
          <path
             d="m 0,0 17.893,5.752 -16.295,-9.135 9.334,-6.34 -10.619,2.807 5.941,-18.463 -9.404,16.9 -5.688,-9.453 2.135,10.875 -17.781,-5.935 16.347,9.4 -10.282,5.85 11.716,-2.43 -6.584,17.391 L -3.389,1.246 2.41,11.334 0,0 z"
             style="fill:#46ae33;fill-opacity:1;fill-rule:evenodd;stroke:none"
             id="path127"
             inkscape:connector-curvature="0" />
        </g>
        <g
           id="g129"
           transform="matrix(1.25,0,0,-1.25,162.43895,23.602185)">
          <path
             d="m 0,0 c 18.144,0 33.927,-10.073 42.085,-24.928 l 3.402,0.497 C 36.944,-8.01 19.79,3.215 0,3.215 c -5.536,0 -10.863,-0.889 -15.858,-2.512 l 1.988,-2.746 C -9.478,-0.72 -4.823,0 0,0"
             style="fill:#46ae33;fill-opacity:1;fill-rule:nonzero;stroke:none"
             id="path131"
             inkscape:connector-curvature="0" />
        </g>
        <g
           id="g133"
           transform="matrix(1.25,0,0,-1.25,190.20257,145.48081)">
          <path
             d="m 0,0 -28.781,33.65 -43.373,-6.333 32.799,28.005 0.447,0.383 -11.249,55.417 33.51,-45.9 L 26.767,71.56 -6.334,43.383 0,0 z m -22.211,1.519 c -18.143,0 -33.932,10.07 -42.09,24.923 l 16.735,2.444 c 5.872,-7.41 14.944,-12.17 25.133,-12.17 1.753,0 3.471,0.146 5.147,0.417 L -6.26,4.241 C -11.251,2.481 -16.617,1.519 -22.211,1.519 m -25.701,88.513 3.616,-17.826 c -6.269,-5.852 -10.193,-14.184 -10.193,-23.435 0,-1.208 0.072,-2.396 0.202,-3.568 l -13.408,-11.449 0.117,0.1 c -1.693,4.909 -2.626,10.172 -2.626,15.657 0,17.049 8.896,32.009 22.292,40.521 M 9.622,48.771 c 0,1.773 -0.15,3.509 -0.427,5.205 L 33.356,74.544 1.651,69.914 c -5.875,6.689 -14.483,10.915 -24.084,10.915 -0.996,0 -1.979,-0.052 -2.952,-0.141 l -28.662,39.583 5.449,-26.862 c -14.906,-8.967 -24.88,-25.297 -24.88,-43.961 0,-6.293 1.139,-12.316 3.214,-17.886 l -8.461,-7.225 10.961,1.601 c 8.525,-16.482 25.716,-27.755 45.553,-27.755 6.434,0 12.583,1.199 18.254,3.366 l 6.936,-8.11 -4.53,31.023 C 5.286,30.341 9.622,39.047 9.622,48.771"
             style="fill:#97d550;fill-opacity:1;fill-rule:nonzero;stroke:none"
             id="path135"
             inkscape:connector-curvature="0" />
        </g>
        <g
           id="g137"
           transform="matrix(1.25,0,0,-1.25,105.49807,113.05893)">
          <path
             d="m 0,0 c 8.524,-16.481 25.716,-27.755 45.553,-27.755 6.433,0 12.583,1.199 18.254,3.366 l -2.303,2.693 c -4.991,-1.76 -10.358,-2.723 -15.951,-2.723 -18.144,0 -33.932,10.07 -42.09,24.924 L 0,0 z M 19.166,67.472 C 4.26,58.505 -5.714,42.175 -5.714,23.511 c 0,-6.293 1.139,-12.317 3.214,-17.887 l 2.686,2.293 c -1.694,4.908 -2.626,10.172 -2.626,15.656 0,17.049 8.896,32.009 22.292,40.522 l -0.686,3.377 z"
             style="fill:#46ae33;fill-opacity:1;fill-rule:nonzero;stroke:none"
             id="path139"
             inkscape:connector-curvature="0" />
        </g>
      </g>
    </g>
    <g
       id="g3886"
       transform="translate(-25.75889,-1.0101525)">
      <path
         transform="translate(333.31748,4.3488803)"
         inkscape:connector-curvature="0"
         id="path3115"
         d="m 245,37.369818 11.25,3.303572 2.5,5.892857 -0.80357,5.535714 2.67857,35.446429 c 0,0 -11.07143,19.375 -11.69643,19.64286 -0.625,0.26785 -7.76786,7.5 -7.76786,7.5 l -5.89285,5.17857 -8.75,-0.98214 -5.53572,-7.58929 z"
         style="fill:#ffffff;fill-opacity:1;stroke:none" />
      <g
         inkscape:label="Capa 1"
         id="layer1-8"
         transform="matrix(0.11400893,0,0,0.11208978,573.42745,54.806693)">
        <rect
           style="opacity:0.98999999;fill:#ffffff;fill-opacity:1;fill-rule:nonzero;stroke:none;stroke-width:8;marker:none;visibility:visible;display:inline;overflow:visible;enable-background:accumulate"
           id="rect2395"
           width="210.71428"
           height="215"
           x="114.28571"
           y="272.93347"
           transform="translate(-628.92048,-223.12728)"
           rx="18.686495"
           ry="18.686495" />
        <path
           inkscape:connector-curvature="0"
           style="fill:#ffffff;fill-opacity:1;fill-rule:evenodd;stroke:none"
           d="m 735.64359,123.81128 126.26907,0.25253 -71.46829,70.20561 -54.80078,-70.45814 z"
           id="path3167"
           transform="translate(-628.92048,-223.12728)" />
        <path
           inkscape:connector-curvature="0"
           style="fill:#ffffff;fill-opacity:1;fill-rule:evenodd;stroke:none"
           d="m 551.79583,838.4942 73.4886,-29.54696 -17.42514,39.90103 L 595.99,874.60716 551.79583,838.4942 z"
           id="path3169"
           transform="translate(-628.92048,-223.12728)" />
        <g
           id="g2389">
          <g
             transform="translate(-371.56249,-45.870541)"
             id="g2406">
            <path
               inkscape:connector-curvature="0"
               id="path2412"
               d="m 315.67861,684.06289 c -24.94319,-20.11651 -27.70048,-22.54419 -26.64946,-23.46383 0.41612,-0.36411 6.59737,-2.55992 13.73609,-4.87957 18.13534,-5.89288 33.32627,-12.03715 52.41684,-21.20102 9.01799,-4.32882 16.55549,-7.87058 16.75,-7.87058 1.20531,0 -0.55476,4.5234 -7.79711,20.03864 -4.48292,9.60375 -11.84616,25.76576 -16.36276,35.91566 -4.51659,10.1498 -8.65946,18.6034 -9.20636,18.7857 -0.5469,0.1823 -10.84616,-7.614 -22.88724,-17.325 z m 35.59269,-19.915 c 7.0361,-14.85 12.46648,-27.35378 12.06751,-27.78617 -1.03166,-1.11807 -62.21457,25.29237 -61.77371,26.66547 0.61478,1.91477 34.14257,28.6789 35.56696,28.3919 0.74048,-0.1491 7.10314,-12.4212 14.13924,-27.2712 z m -204.98556,12.4855 c -58.10137,-2.9465 -115.21879,-18.08489 -168,-44.52663 -44.21468,-22.15017 -76.6067,-45.82589 -113.71626,-83.11659 l -22.21625,-22.3247 -0.28375,10.74121 -0.28374,10.74121 -2.89149,0.33008 c -1.64233,0.18747 -3.25577,-0.24454 -3.73469,-1 -0.46376,-0.73155 -0.85009,-8.36248 -0.85851,-16.95764 -0.0115,-11.73557 -0.34516,-15.9013 -1.33977,-16.72676 -0.82754,-0.68679 -8.19713,-1.20172 -19.64211,-1.37244 -16.177,-0.24131 -18.44652,-0.47775 -19.42042,-2.02324 -0.80348,-1.27505 -0.80361,-2.22495 -4.5e-4,-3.5 0.95395,-1.51445 3.07318,-1.78725 15.74488,-2.02673 8.85457,-0.16735 14.64256,-0.66981 14.64256,-1.27114 0,-0.54692 -3.76035,-6.49739 -8.35633,-13.22327 -38.46423,-56.28953 -62.07919,-119.27649 -71.32026,-190.22886 -2.63085,-20.19949 -2.62055,-80.75242 0.0172,-101 10.02274,-76.936 36.93575,-144.28898 81.74162,-204.56806 l 7.85532,-10.56806 0.28123,-12.82489 c 0.23981,-10.93547 0.53906,-12.98723 2.03124,-13.92682 1.2728,-0.80146 2.2272,-0.80208 3.5,-0.0023 1.34791,0.84699 1.81751,2.74137 2.04381,8.24489 0.16159,3.92988 0.63503,7.14523 1.05207,7.14523 0.41705,0 4.3048,-4.07085 8.63945,-9.04634 15.15947,-17.40063 40.62576,-40.61281 61.95944,-56.47519 59.98714,-44.60262 126.61069,-71.42335 202.55523,-81.54291 19.97272,-2.66135 64.21045,-3.70885 85.56859,-2.02616 84.79536,6.68054 164.36805,37.41408 230.43141,89.00003 12.1922,9.52035 32.67195,27.53087 34.29244,30.15784 0.72192,1.1703 0.0736,2.81664 -2.5599,6.5 -5.83205,8.1572 -19.4169,30.73637 -30.90783,51.37139 l -10.82471,19.43866 0,22.27241 0,22.2724 8.75,0.28894 8.75,0.28893 0.33008,2.89149 c 0.44719,3.91747 -0.99636,4.57525 -10.08008,4.5932 l -7.75,0.01531 0,55.66667 c 0,30.61666 0.27418,55.39248 0.6093,55.05737 0.33511,-0.33512 1.85561,-4.17027 3.37888,-8.52256 10.41179,-29.74856 32.46259,-65.14894 64.90685,-104.20148 10.04982,-12.09678 33.77749,-38.55581 38.80385,-43.27068 3.57022,-3.34897 3.53325,-3.38007 11.02338,9.27068 43.76784,73.92324 60.23804,138.07361 56.36064,219.51993 -2.3963,50.33408 -9.0851,89.53817 -22.23409,130.31704 -24.67427,76.52233 -70.30206,143.13788 -131.84881,192.4963 -22.29601,17.88064 -66.03155,46.03518 -68.17769,43.88904 -1.99232,-1.99232 16.40195,-53.9141 30.79979,-86.93905 4.60785,-10.56921 8.3779,-20.13171 8.3779,-21.25 0,-2.00308 -0.48757,-2.03326 -32.84397,-2.03326 l -32.84396,0 -47.22587,59.51811 c -25.97423,32.73496 -47.08195,60.13861 -46.90604,60.89699 0.17591,0.75839 7.42632,7.12126 16.11201,14.13972 10.26826,8.29726 15.4508,13.10221 14.81625,13.73676 -1.46748,1.46748 -26.61746,7.33665 -43.60842,10.17672 -30.10596,5.0323 -65.14503,7.0566 -95.5,5.5172 z M 414.04831,467.81037 c 0.16553,-22.90944 -0.0923,-36.2128 -0.69777,-36 -1.27058,0.44656 -57.0648,70.81694 -57.0648,71.97289 0,0.51246 12.29385,0.78184 28.75,0.62997 l 28.75,-0.26534 0.26257,-36.33752 z m 13.82843,23.08752 c 18.43243,-33.93324 38.35149,-61.43161 60.317,-83.26794 13.47652,-13.39726 23.4647,-21.36963 37.01026,-29.54088 4.6593,-2.81068 8.6066,-5.52227 8.77177,-6.02576 0.16517,-0.50348 -4.81005,-3.50249 -11.05604,-6.66445 -49.90693,-25.26486 -83.59952,-64.74647 -97.00685,-113.67443 -1.40808,-5.13859 -2.80022,-9.58296 -3.09365,-9.87638 -0.29342,-0.29342 -0.53349,28.13885 -0.53349,63.18283 0,56.9105 0.17405,64.05817 1.62945,66.91667 0.8962,1.76019 4.4962,8.21415 8,14.34215 3.5038,6.128 6.37055,11.59372 6.37055,12.14606 0,0.55233 -3.6,5.59779 -8,11.21213 l -8,10.20789 0,39.89605 c 0,21.94283 0.18856,39.89606 0.41902,39.89606 0.23046,0 2.55785,-3.9375 5.17198,-8.75 z m -13.591,-278.75 0,-139.5 -7.87756,0 c -5.09841,0 -8.23274,0.44099 -8.88436,1.25 -0.55374,0.6875 -3.71463,8.45 -7.02421,17.25 -21.11802,56.15184 -28.18436,101.36759 -21.72299,139 3.77058,21.96064 11.67125,47.69452 23.09274,75.21707 6.92052,16.6765 20.89917,46.28293 21.85245,46.28293 0.31016,0 0.56393,-62.775 0.56393,-139.5 z m -493.03317,72.41369 c 2.78589,-0.59746 7.18936,-2.55009 9.78547,-4.33916 3.95026,-2.72225 5.05528,-4.22592 6.77437,-9.21821 1.12979,-3.28095 3.27348,-8.04596 4.76375,-10.58891 l 2.70958,-4.62355 0,-63.57193 c 0,-62.83967 -0.02371,-63.59564 -2.05839,-65.63032 -1.993,-1.993 -2.92215,-2.04859 -29.25,-1.75 -24.31088,0.27572 -27.56241,0.50698 -30.69161,2.18292 -7.1594,3.83443 -11.85524,8.58599 -15.20021,15.3806 l -3.29979,6.70282 0,31.52102 0,31.52103 2.66041,5.67515 c 3.57058,7.61672 9.74223,14.0931 16.11254,16.90812 4.70892,2.08086 7.20953,2.36468 25.22705,2.86328 l 20,0.55345 0.31419,8 c 0.39265,9.99798 -0.79507,14.11901 -5.34008,18.52838 l -3.57841,3.47162 -21.34501,0.5 c -18.75993,0.43944 -21.58696,0.71919 -23.34272,2.30984 -3.90726,3.53983 -3.19141,11.94513 1.16723,13.70531 3.10269,1.25299 38.65325,1.1721 44.59163,-0.10146 z m -31.94456,-66.14183 c -1.83611,-1.24952 -4.27975,-3.54236 -5.43032,-5.09519 -2.01283,-2.71655 -2.09195,-3.95236 -2.09195,-32.67667 0,-28.59196 0.0871,-29.97002 2.06179,-32.61488 4.99065,-6.68443 5.75604,-6.88512 26.25897,-6.88512 l 18.67924,0 0,39.5 0,39.5 -18.06968,0.27186 c -17.37249,0.26137 -18.19848,0.18421 -21.40805,-2 z m 134.62208,15.71439 c 2.51813,-2.76212 34.35565,-97.29877 34.35565,-102.01385 0,-4.93508 -2.45432,-7.4724 -7.22796,-7.4724 -2.38325,0 -4.865,0.67914 -5.89804,1.61402 -1.01597,0.91945 -7.00287,17.27238 -13.91201,38 -6.67069,20.01229 -12.50359,36.38598 -12.96199,36.38598 -0.4584,0 -6.2913,-16.37369 -12.96199,-36.38598 -6.90914,-20.72762 -12.89604,-37.08055 -13.91201,-38 -1.98952,-1.80048 -7.28592,-2.13399 -10.08656,-0.63513 -1.00599,0.53839 -2.28311,2.28135 -2.83805,3.87323 -0.87689,2.51546 1.13598,9.38867 15.37663,52.50555 9.01208,27.28616 16.95091,50.51642 17.64185,51.62279 1.50399,2.40827 5.51325,4.03024 8.28013,3.34978 1.1,-0.27053 2.96496,-1.55032 4.14435,-2.84399 z M 413.85052,63.33967 c 0.2761,-0.71952 0.37448,-6.68202 0.21861,-13.25 l -0.28339,-11.94178 -5.75,11.83031 c -3.1625,6.50666 -5.75,12.46916 -5.75,13.25 0,1.92368 10.82931,2.02807 11.56478,0.11147 z M 523.30443,10.28274 c -11.33448,-16.65954 -26.08051,-35.12314 -41.3883,-51.82255 -6.39671,-6.97824 -11.63039,-12.94074 -11.63039,-13.25 0,-0.30927 31.533,-0.5623 70.07332,-0.5623 56.87128,0 70.01238,0.24408 69.74998,1.29551 -0.1778,0.71253 -8.0406,8.58131 -17.4728,17.48618 -9.43229,8.90487 -26.82128,26.13122 -38.64224,38.28078 l -21.49266,22.09011 -9.19691,-13.51773 z m 42.44268,-29.5962 c 17.02209,-17.02874 30.74433,-31.14129 30.49393,-31.36122 -0.9642,-0.8468 -109.52248,-1.58476 -110.85022,-0.75354 -1.07148,0.67079 3.77673,7.56312 20.90901,29.72469 24.61621,31.84248 25.85662,33.35142 27.41627,33.35142 0.59496,0 15.00891,-13.93261 32.03101,-30.96135 z"
               style="fill:#eebe0e" />
            <path
               inkscape:connector-curvature="0"
               id="path2410"
               d="m 374.83408,622.7261 c -1.52386,-2.46565 17.61473,-55.92337 31.07376,-86.79495 4.60785,-10.56921 8.3779,-20.05822 8.3779,-21.0867 0,-1.79199 -2.03275,-1.89758 -48.75,-2.53214 -26.8125,-0.3642 -155.26094,-0.66268 -285.44098,-0.6633 -188.25563,-8.9e-4 -236.85654,0.25467 -237.5,1.24888 -0.44496,0.6875 -0.80902,8.9 -0.80902,18.25 l 0,17 -2.89149,0.33008 c -1.63021,0.18609 -3.27758,-0.25011 -3.77659,-1 -0.48679,-0.73155 -0.79494,-8.92861 -0.68476,-18.21571 l 0.20032,-16.88563 -19.81172,-0.11437 c -17.70459,-0.10221 -19.92946,-0.3005 -20.91863,-1.86437 -0.80984,-1.28036 -0.80828,-2.21964 0.006,-3.5 0.99614,-1.56664 3.11187,-1.75 20.19285,-1.75 12.01753,0 19.47038,-0.38951 20.13445,-1.05229 0.73415,-0.73273 0.97771,-66.47897 0.80204,-216.5 l -0.25229,-215.44771 -13.5,-0.5 -13.5,-0.5 0,-2.5 0,-2.5 12.43643,-0.28228 c 7.85352,-0.17825 12.97276,-0.72739 13.89186,-1.49017 1.2493,-1.03683 1.39993,-8.62913 1.06357,-53.60695 -0.36692,-49.06354 -0.28046,-52.46942 1.35814,-53.50471 1.27679,-0.80668 2.22321,-0.80716 3.5,-0.0017 1.63766,1.03304 1.72704,4.4395 1.39227,53.06573 -0.32943,47.85224 -0.22332,52.09622 1.34165,53.66119 1.59245,1.59246 19.55838,1.68237 285.55782,1.42916 215.67214,-0.20531 284.14048,-0.55228 285.03255,-1.44442 0.8577,-0.85777 1.31514,-16.15125 1.69745,-56.75 l 0.52334,-55.5758 2.85246,0 2.85246,0 0.002,24.25 c 9.2e-4,13.3375 0.29831,38.74604 0.66086,56.46341 l 0.65919,32.21342 8.58913,0.28658 8.58914,0.28659 0.33008,2.89149 c 0.44719,3.91747 -0.99636,4.57525 -10.08008,4.5932 l -7.75,0.01531 0,55.66667 c 0,30.61666 0.27418,55.39248 0.6093,55.05737 0.33511,-0.33512 1.85561,-4.17027 3.37888,-8.52256 10.41179,-29.74856 32.46259,-65.14894 64.90685,-104.20148 10.04982,-12.09678 33.77749,-38.55581 38.80385,-43.27068 3.57022,-3.34897 3.53325,-3.38007 11.02338,9.27068 43.76784,73.92324 60.23804,138.07361 56.36064,219.51993 -2.3963,50.33408 -9.0851,89.53817 -22.23409,130.31704 -24.67427,76.52233 -70.30206,143.13788 -131.84881,192.4963 -14.57679,11.69009 -41.55665,30.09475 -57.28538,39.07797 -10.74294,6.13565 -10.35802,5.97477 -11.16628,4.66697 z m 38.62416,-118.85059 c 1.02341,-1.0235 1.22086,-43.26316 1.0095,-215.95704 -0.14451,-118.07656 -0.50703,-214.92899 -0.80559,-215.22762 -0.29857,-0.29863 -128.58233,-0.66747 -285.07502,-0.81964 -213.18985,-0.20731 -284.87934,0.01144 -285.91678,0.87244 -1.1716,0.97235 -1.38461,34.11839 -1.38461,215.45526 0,198.18535 0.12464,214.43077 1.65699,215.96312 1.53646,1.53646 22.3012,1.63258 285.45013,1.32143 228.00935,-0.26961 284.0432,-0.58567 285.06538,-1.60795 z M -13.893,429.15061 c -14.71314,-2.47603 -32.3245,-9.90529 -43.24593,-18.24307 -7.33256,-5.59791 -8.4139,-11.51198 -3.08012,-16.84577 3.9816,-3.9816 7.38803,-3.2126 24.99034,5.64157 18.18584,9.14768 27.11088,11.51022 40.55276,10.73472 19.8435,-1.14485 32.03823,-18.25555 26.52553,-37.21858 -2.92597,-10.06496 -6.64221,-12.78786 -42.36643,-31.04199 -32.94448,-16.83376 -39.87455,-21.30726 -45.00361,-29.05072 -6.14068,-9.27075 -7.57496,-14.62882 -7.62338,-28.47888 -0.04219,-12.06758 0.06883,-12.73858 3.20903,-19.39665 2.29551,-4.8671 5.23438,-8.84087 9.98664,-13.50335 11.22,-11.00804 21.44182,-15.1 37.72024,-15.1 17.99694,0 35.28729,3.33294 46.4051,8.94519 9.20224,4.64528 11.64744,10.88408 6.61152,16.86894 -3.76791,4.4779 -6.06341,4.5703 -17.71324,0.71294 -17.85502,-5.91193 -37.53849,-8.18066 -46.82808,-5.39743 -5.83819,1.74917 -12.91196,7.74542 -16.36285,13.87036 -2.79492,4.96068 -3.0976,6.3335 -3.08678,14 0.0143,10.13262 1.95202,14.63444 8.87899,20.62821 2.62752,2.27355 17.36719,10.45127 35.70721,19.81074 26.94272,13.74969 32.10358,16.75371 37.57378,21.87081 19.00929,17.78226 18.95108,49.10421 -0.12671,68.182 -13.01729,13.0173 -29.10114,16.98639 -52.72401,13.01096 z m 153.4845,-0.91614 -2.80576,-2.41341 0,-92.17317 0,-92.17317 2.80576,-2.41341 c 4.11744,-3.54167 9.93514,-3.32636 13.77116,0.50966 l 2.92308,2.92307 0,91.15385 0,91.15385 -2.92308,2.92307 c -3.83602,3.83602 -9.65372,4.05133 -13.77116,0.50966 z m 137.96394,1.35936 c -15.0513,-2.97064 -29.74968,-15.91644 -35.38837,-31.16878 -2.30516,-6.23531 -2.32285,-6.64048 -2.65478,-60.77716 -0.3641,-59.38439 -0.1047,-63.26486 4.93578,-73.83493 3.60949,-7.56922 13.0825,-17.50032 20.41253,-21.39962 10.03865,-5.34017 13.8162,-5.76545 51.21216,-5.76545 l 34.36683,0 2.92307,2.92308 c 3.83522,3.83521 4.05116,9.65312 0.51114,13.77116 l -2.41193,2.80576 -35.83807,0.5 c -31.59113,0.44075 -36.25742,0.70901 -39.37686,2.26372 -5.84822,2.91472 -10.36015,7.22134 -13.49482,12.88073 l -2.96638,5.35555 0,56.5 c 0,56.31641 0.007,56.51338 2.2022,60.61647 3.38401,6.32557 6.64002,9.7029 12.46508,12.92958 l 5.33272,2.95395 28,0 28,0 0,-38 0,-38 -11.84033,-0.5 c -11.5907,-0.48946 -11.89345,-0.56184 -14.35943,-3.43298 -2.11044,-2.45718 -2.43811,-3.65148 -2.01988,-7.36201 0.30103,-2.67073 1.34799,-5.2778 2.63721,-6.56702 2.03738,-2.03738 3.05299,-2.13799 21.58243,-2.13799 18.89991,0 19.50823,0.0638 21.72222,2.27719 l 2.27778,2.2772 0.27568,53.02405 0.27568,53.02405 -2.94876,2.94875 -2.94875,2.94876 -34.32693,-0.10957 c -18.8798,-0.0603 -36.23055,-0.48528 -38.55722,-0.94449 z m 150.3213,61.30406 c 18.43243,-33.93324 38.35149,-61.43161 60.317,-83.26794 13.47652,-13.39726 23.4647,-21.36963 37.01026,-29.54088 4.6593,-2.81068 8.6066,-5.52227 8.77177,-6.02576 0.16517,-0.50348 -4.81005,-3.50249 -11.05604,-6.66445 -49.90693,-25.26486 -83.59952,-64.74647 -97.00685,-113.67443 -1.40808,-5.13859 -2.73727,-9.52 -2.95374,-9.73647 -0.70609,-0.70609 -1.37302,157.59842 -0.87742,208.26701 0.26572,27.1661 0.60889,49.39292 0.76259,49.39292 0.15371,0 2.4183,-3.9375 5.03243,-8.75 z"
               style="fill:#3e83c3" />
            <path
               inkscape:connector-curvature="0"
               id="path2408"
               d="m 415.28574,539.14789 c 0,-21.27928 -0.28276,-27.52293 -1.25,-27.60136 -0.6875,-0.0557 -129.275,-0.0154 -285.75,0.0896 -190.38298,0.12777 -284.90567,0.52611 -285.72629,1.20412 -0.85717,0.70822 -1.30867,6.02406 -1.5,17.66042 -0.26585,16.16897 -0.33542,16.65604 -2.42178,16.95343 -2.11364,0.30129 -2.15371,0.0336 -2.5,-16.70072 -0.25264,-12.20896 -0.7181,-17.37346 -1.64987,-18.30619 -0.94861,-0.94958 -6.41476,-1.38775 -20.30924,-1.62798 -18.85461,-0.32598 -19.00875,-0.34659 -18.70206,-2.5 0.30313,-2.12841 0.67759,-2.17667 18.95479,-2.44298 14.05292,-0.20476 18.91815,-0.60015 19.75229,-1.60522 0.80316,-0.96775 1.03753,-60.41602 0.85445,-216.72832 l -0.25229,-215.39478 -13.5,-0.5 -13.5,-0.5 0,-2.5 0,-2.5 12.43643,-0.28228 c 7.07411,-0.16056 13.00281,-0.75233 13.75,-1.37244 1.03903,-0.86232 1.31421,-8.43184 1.31663,-36.21772 0.002,-19.32016 0.29834,-42.91197 0.65924,-52.42624 0.63735,-16.80228 0.71617,-17.29012 2.74694,-17 2.08321,0.2976 2.09257,0.48748 2.59076,52.58559 0.43049,45.01789 0.70853,52.41867 2,53.23468 0.9357,0.59123 108.81075,0.95355 286.75,0.9631 l 285.25,0.01531 0,-57 0,-57 3.16273,0 3.16273,0 -0.65764,55.75 c -0.36169,30.6625 -0.30809,56.29271 0.11912,56.95603 0.4784,0.74279 4.02939,1.31895 9.2449,1.5 7.91671,0.27483 8.48897,0.44049 8.78771,2.54397 0.30853,2.17242 0.0438,2.25 -7.67857,2.25 -5.73257,0 -8.41787,0.41975 -9.47997,1.48185 -1.30095,1.30095 -1.46227,27.73551 -1.32143,216.53652 0.1417,189.95469 0.33549,215.16533 1.66042,216.00283 0.82729,0.52295 11.47851,0.95504 23.75,0.96349 l 22.25,0.0153 0,2.98157 0,2.98157 -23.25,0.26843 -23.25,0.26843 -0.26607,27.25 -0.26607,27.25 -2.98393,0 -2.98393,0 0,-27.5 z m 0,-250.5 c 0,-172.91979 -0.25392,-217.00516 -1.25,-217.02539 -0.6875,-0.01396 -129.2424,-0.0027 -285.67757,0.02492 -204.92978,0.03625 -284.79718,0.35707 -285.75,1.14784 -1.08905,0.90383 -1.32243,38.91823 -1.32243,215.40365 0,193.49041 0.15263,214.45876 1.57143,215.87755 1.42123,1.42123 28.85281,1.57143 287,1.57143 l 285.42857,0 0,-217 z M -13.893,429.15061 c -14.71314,-2.47603 -32.3245,-9.90529 -43.24593,-18.24307 -7.33256,-5.59791 -8.4139,-11.51198 -3.08012,-16.84577 3.9816,-3.9816 7.38803,-3.2126 24.99034,5.64157 18.18584,9.14768 27.11088,11.51022 40.55276,10.73472 19.8435,-1.14485 32.03823,-18.25555 26.52553,-37.21858 -2.92597,-10.06496 -6.64221,-12.78786 -42.36643,-31.04199 -17.19017,-8.78372 -33.63768,-17.84061 -36.55003,-20.12641 -13.62588,-10.69449 -19.89225,-31.01095 -14.77515,-47.90319 7.53205,-24.86434 24.24957,-37.5 49.6141,-37.5 17.99694,0 35.28729,3.33294 46.4051,8.94519 9.20224,4.64528 11.64744,10.88408 6.61152,16.86894 -3.76791,4.4779 -6.06341,4.5703 -17.71324,0.71294 -17.85502,-5.91193 -37.53849,-8.18066 -46.82808,-5.39743 -5.83819,1.74917 -12.91196,7.74542 -16.36285,13.87036 -2.79492,4.96068 -3.0976,6.3335 -3.08678,14 0.0143,10.13262 1.95202,14.63444 8.87899,20.62821 2.62752,2.27355 17.36719,10.45127 35.70721,19.81074 26.94272,13.74969 32.10358,16.75371 37.57378,21.87081 19.00929,17.78226 18.95108,49.10421 -0.12671,68.182 -13.01729,13.0173 -29.10114,16.98639 -52.72401,13.01096 z m 153.4845,-0.91614 -2.80576,-2.41341 0,-92.17317 0,-92.17317 2.80576,-2.41341 c 4.11744,-3.54167 9.93514,-3.32636 13.77116,0.50966 l 2.92308,2.92307 0,91.15385 0,91.15385 -2.92308,2.92307 c -3.83602,3.83602 -9.65372,4.05133 -13.77116,0.50966 z m 137.96394,1.35936 c -15.0513,-2.97064 -29.74968,-15.91644 -35.38837,-31.16878 -2.30516,-6.23531 -2.32285,-6.64048 -2.65478,-60.77716 -0.3641,-59.38439 -0.1047,-63.26486 4.93578,-73.83493 3.60949,-7.56922 13.0825,-17.50032 20.41253,-21.39962 10.03865,-5.34017 13.8162,-5.76545 51.21216,-5.76545 l 34.36683,0 2.92307,2.92308 c 3.83522,3.83521 4.05116,9.65312 0.51114,13.77116 l -2.41193,2.80576 -35.83807,0.5 c -31.59113,0.44075 -36.25742,0.70901 -39.37686,2.26372 -5.84822,2.91472 -10.36015,7.22134 -13.49482,12.88073 l -2.96638,5.35555 0,56.5 c 0,56.31641 0.007,56.51338 2.2022,60.61647 3.38401,6.32557 6.64002,9.7029 12.46508,12.92958 l 5.33272,2.95395 28,0 28,0 0,-38 0,-38 -11.84033,-0.5 c -11.5907,-0.48946 -11.89345,-0.56184 -14.35943,-3.43298 -2.11044,-2.45718 -2.43811,-3.65148 -2.01988,-7.36201 0.30103,-2.67073 1.34799,-5.2778 2.63721,-6.56702 2.03738,-2.03738 3.05299,-2.13799 21.58243,-2.13799 18.89991,0 19.50823,0.0638 21.72222,2.27719 l 2.27778,2.2772 0.27568,53.02405 0.27568,53.02405 -2.94876,2.94875 -2.94875,2.94876 -34.32693,-0.10957 c -18.8798,-0.0603 -36.23055,-0.48528 -38.55722,-0.94449 z"
               style="fill:#19150a" />
          </g>
        </g>
      </g>
    </g>
  </g>
</svg>
